<svg width="143" height="32" viewBox="0 0 143 32" fill="none" xmlns="http://www.w3.org/2000/svg">
<path fill-rule="evenodd" clip-rule="evenodd" d="M28.208 7.09839H38.3266C39.2413 7.09839 40.0988 7.49911 40.6704 8.18605C41.2421 8.87299 41.528 9.73166 41.4708 10.6476L40.4418 26.1038C40.0988 29.4812 37.2976 32 33.9247 32H7.39922C4.02636 32 1.22518 29.424 0.939342 26.0465L0.0246694 10.5331C-0.0896647 9.67442 0.196171 8.7585 0.825008 8.1288C1.39668 7.49911 2.25418 7.09839 3.16886 7.09839H13.2874C13.4589 3.14848 16.7175 0 20.7191 0C24.7208 0 27.9794 3.14848 28.208 7.09839ZM26.4359 7.09839C26.2643 4.12165 23.749 1.71735 20.7191 1.71735C17.6893 1.71735 15.2311 4.12165 15.0024 7.09839H26.4359ZM33.9247 30.2827C36.3829 30.2827 38.4409 28.3936 38.7268 25.932L39.7558 10.4759C39.8129 10.0179 39.6986 9.61717 39.4128 9.33095C39.1269 9.04472 38.7268 8.87299 38.3266 8.87299H3.16886C2.71152 8.87299 2.36852 9.04472 2.08268 9.33095C1.79685 9.61717 1.62535 10.0179 1.68251 10.4186L2.59719 25.9893C2.88302 28.4508 4.94104 30.2827 7.39922 30.2827H33.9247ZM59.9932 11.5064H61.308C61.5367 11.5064 61.651 11.6781 61.651 11.8499V27.2488C61.651 27.4205 61.4795 27.5923 61.308 27.5923H59.8217C59.6502 27.5923 59.4787 27.4205 59.4787 27.2488V15.857L53.762 25.4742C53.7048 25.5887 53.5905 25.6459 53.4761 25.6459H52.7901C52.6758 25.6459 52.5615 25.5887 52.5043 25.4742L46.7876 15.9143V27.2488C46.7876 27.4205 46.6161 27.5923 46.4446 27.5923H44.9582C44.7867 27.5923 44.6152 27.4205 44.6152 27.2488V11.8499C44.6152 11.6781 44.7867 11.5064 44.9582 11.5064H46.2731C46.3874 11.5064 46.5017 11.5637 46.5589 11.6781L53.1903 22.7837L59.7073 11.6781C59.7645 11.5637 59.8788 11.5064 59.9932 11.5064ZM109.042 13.1665V11.8499C109.042 11.6781 108.871 11.5064 108.699 11.5064H96.1223C95.9508 11.5064 95.7793 11.6781 95.7793 11.8499V13.1665C95.7793 13.3383 95.9508 13.51 96.1223 13.51H101.267V27.2488C101.267 27.4205 101.439 27.5923 101.61 27.5923H103.154C103.325 27.5923 103.497 27.4205 103.497 27.2488V13.51H108.642C108.928 13.51 109.042 13.3383 109.042 13.1665ZM107.899 25.0159C108.185 24.7297 108.528 24.5579 108.985 24.5579C109.385 24.5579 109.785 24.7297 110.071 24.9586C110.357 25.2449 110.528 25.6456 110.528 26.1035C110.528 26.5615 110.357 26.9622 110.071 27.2484C109.728 27.5347 109.385 27.7064 108.985 27.7064C108.585 27.7064 108.185 27.5347 107.899 27.2484C107.613 26.9622 107.441 26.5615 107.441 26.1035C107.441 25.7028 107.613 25.3021 107.899 25.0159ZM125.449 20.2649C126.078 19.4062 126.364 18.3186 126.364 17.1164C126.364 15.3418 125.792 14.0252 124.591 12.9948C123.391 12.0216 121.733 11.5064 119.675 11.5064H113.73C113.558 11.5064 113.387 11.6781 113.387 11.8499V27.2488C113.387 27.4205 113.558 27.5923 113.73 27.5923H115.33C115.502 27.5923 115.673 27.4205 115.673 27.2488V22.7264H119.618C119.847 22.7264 120.19 22.7264 120.647 22.6692L124.02 27.4778C124.077 27.5923 124.191 27.6495 124.306 27.6495H125.963C126.249 27.6495 126.421 27.3061 126.249 27.0771L122.819 22.2112C123.963 21.8105 124.877 21.1808 125.449 20.2649ZM122.934 19.8069C122.19 20.4366 121.047 20.7229 119.618 20.7229H115.731V13.7962C115.731 13.6245 115.845 13.51 116.016 13.51H119.618C121.047 13.51 122.19 13.7962 122.934 14.4259C123.677 15.0556 124.077 15.9143 124.077 17.1164C124.077 18.2613 123.677 19.1772 122.934 19.8069ZM95.1508 17.1164C95.1508 18.3186 94.865 19.4062 94.2362 20.2649C93.6073 21.1808 92.7498 21.8105 91.6065 22.2112L95.0365 27.0771C95.208 27.3061 95.0365 27.6495 94.7507 27.6495H93.0928C92.9785 27.6495 92.8642 27.5923 92.807 27.4778L89.4341 22.6692C88.9768 22.7264 88.6338 22.7264 88.4051 22.7264H84.4606V27.2488C84.4606 27.4205 84.2891 27.5923 84.1176 27.5923H82.5169C82.3454 27.5923 82.1739 27.4205 82.1739 27.2488V11.8499C82.1739 11.6781 82.3454 11.5064 82.5169 11.5064H88.4623C90.5203 11.5064 92.1782 12.0216 93.3787 12.9948C94.5792 14.0252 95.1508 15.3418 95.1508 17.1164ZM88.4051 20.7229C89.8343 20.7229 90.9776 20.4366 91.7208 19.8069C92.464 19.1772 92.8642 18.2613 92.8642 17.1164C92.8642 15.9143 92.464 15.0556 91.7208 14.4259C90.9776 13.7962 89.8343 13.51 88.4051 13.51H84.8036C84.6321 13.51 84.5178 13.6245 84.5178 13.7962V20.7229H88.4051ZM142.657 11.5064H141.114C140.942 11.5064 140.771 11.6781 140.771 11.8499V20.5511C140.771 22.3257 140.371 23.5851 139.627 24.4438C138.827 25.3025 137.741 25.7032 136.255 25.7032C133.225 25.7032 131.738 23.9858 131.738 20.5511V11.8499C131.738 11.6781 131.567 11.5064 131.395 11.5064H129.738C129.566 11.5064 129.395 11.6781 129.395 11.8499V20.6656C129.395 22.9554 129.966 24.73 131.167 25.9322C132.367 27.1343 134.025 27.764 136.197 27.764C138.313 27.764 140.028 27.1343 141.228 25.9322C142.429 24.73 143 22.9554 143 20.6084V11.8499C143 11.6781 142.829 11.5064 142.657 11.5064ZM19.6903 12.0789L13.402 18.7193L20.262 27.0198C20.4335 27.2488 20.262 27.5923 19.9762 27.5923H18.204C18.0897 27.5923 17.9753 27.535 17.9182 27.4778L11.8585 20.4366L8.94293 23.4134V27.2488C8.94293 27.4205 8.77143 27.5923 8.59993 27.5923H6.99925C6.82775 27.5923 6.65625 27.4205 6.65625 27.2488V11.8499C6.65625 11.6781 6.82775 11.5064 6.99925 11.5064H8.59993C8.77143 11.5064 8.94293 11.6781 8.94293 11.8499V20.4939L17.5752 11.6209C17.6323 11.5637 17.6895 11.5064 17.8038 11.5064H19.4617C19.7475 11.5064 19.919 11.8499 19.6903 12.0789ZM26.0925 14.1395C27.0643 13.6243 28.1505 13.3381 29.4081 13.3381C31.1232 13.3381 32.6095 13.9106 33.8672 14.9982C33.9815 15.1127 34.2102 15.1127 34.3245 14.9982L35.2963 14.0251C35.4107 13.9106 35.4107 13.6816 35.2963 13.5671C34.6103 12.8802 33.81 12.3077 32.8382 11.9642C31.8092 11.5635 30.6087 11.3345 29.351 11.3345C27.6931 11.3345 26.264 11.678 24.9491 12.4222C23.6343 13.1091 22.6053 14.0823 21.8621 15.3417C21.1189 16.6011 20.7188 18.0322 20.7188 19.5778C20.7188 21.1234 21.1189 22.5546 21.8621 23.814C22.6053 25.0734 23.6343 26.0465 24.9491 26.7335C26.264 27.4204 27.6931 27.8211 29.351 27.8211C30.4943 27.8211 31.5805 27.6494 32.6667 27.3059C33.6385 26.9624 34.5532 26.5045 35.2963 25.932C35.4107 25.8748 35.4678 25.703 35.4678 25.5886V19.8068C35.4678 19.6351 35.3535 19.5206 35.182 19.5206H30.1513C29.9798 19.5206 29.8655 19.6351 29.8655 19.8068V20.9517C29.8655 21.1234 29.9798 21.2379 30.1513 21.2379H33.2955V24.5009C33.2955 24.6726 33.2383 24.7871 33.0668 24.8444C32.0378 25.4741 30.8373 25.7603 29.5225 25.7603C28.322 25.7603 27.2358 25.4741 26.264 24.9589C25.2921 24.4437 24.5489 23.6995 23.9773 22.7263C23.4056 21.8104 23.1769 20.7227 23.1769 19.5778C23.1769 18.3757 23.4628 17.3453 23.9773 16.3721C24.3774 15.3989 25.1206 14.6547 26.0925 14.1395ZM72.7978 11.449C72.9693 11.449 73.0836 11.5635 73.1408 11.678L80.1723 27.0769C80.2295 27.3059 80.058 27.5921 79.8293 27.5921H78.1715C78 27.5921 77.8856 27.4776 77.8285 27.3631L75.7704 22.669H67.9957L65.9377 27.3631C65.8805 27.5348 65.709 27.5921 65.5947 27.5921H63.994C63.7082 27.5921 63.5367 27.3059 63.651 27.0769L70.6254 11.678C70.6826 11.5062 70.8541 11.449 70.9684 11.449H72.7978ZM71.9402 13.796L68.9104 20.7227H74.9701L71.9402 13.796Z" fill="#8134AF"/>
</svg>
