<svg width="107" height="24" viewBox="0 0 107 24" fill="none" xmlns="http://www.w3.org/2000/svg">
<path fill-rule="evenodd" clip-rule="evenodd" d="M21.1068 5.32379H28.6781C29.3625 5.32379 30.0041 5.62433 30.4319 6.13953C30.8596 6.65474 31.0735 7.29875 31.0307 7.98569L30.2608 19.5778C30.0041 22.1109 27.9081 24 25.3844 24H5.5365C3.01275 24 0.916745 22.068 0.702868 19.5349L0.018459 7.89982C-0.0670921 7.25581 0.146786 6.56887 0.617317 6.0966C1.04507 5.62433 1.68671 5.32379 2.37111 5.32379H9.94238C10.0707 2.36136 12.5089 0 15.5032 0C18.4975 0 20.9357 2.36136 21.1068 5.32379ZM19.7808 5.32379C19.6524 3.09123 17.7703 1.28801 15.5032 1.28801C13.2361 1.28801 11.3968 3.09123 11.2257 5.32379H19.7808ZM25.3844 22.712C27.2237 22.712 28.7636 21.2952 28.9775 19.449L29.7475 7.85689C29.7902 7.51342 29.7047 7.21288 29.4908 6.99821C29.2769 6.78354 28.9775 6.65474 28.6781 6.65474H2.37111C2.02891 6.65474 1.77226 6.78354 1.55838 6.99821C1.3445 7.21288 1.21617 7.51342 1.25895 7.81395L1.94336 19.492C2.15724 21.3381 3.69716 22.712 5.5365 22.712H25.3844ZM44.8895 8.62976H45.8733C46.0444 8.62976 46.13 8.75856 46.13 8.88736V20.4366C46.13 20.5654 46.0017 20.6942 45.8733 20.6942H44.7612C44.6328 20.6942 44.5045 20.5654 44.5045 20.4366V11.8927L40.227 19.1056C40.1842 19.1915 40.0986 19.2344 40.0131 19.2344H39.4998C39.4142 19.2344 39.3287 19.1915 39.2859 19.1056L35.0084 11.9357V20.4366C35.0084 20.5654 34.88 20.6942 34.7517 20.6942H33.6395C33.5112 20.6942 33.3829 20.5654 33.3829 20.4366V8.88736C33.3829 8.75856 33.5112 8.62976 33.6395 8.62976H34.6234C34.7089 8.62976 34.7945 8.67269 34.8372 8.75856L39.7992 17.0877L44.6756 8.75856C44.7184 8.67269 44.804 8.62976 44.8895 8.62976ZM81.5899 9.87484V8.88736C81.5899 8.75856 81.4616 8.62976 81.3333 8.62976H71.9227C71.7943 8.62976 71.666 8.75856 71.666 8.88736V9.87484C71.666 10.0036 71.7943 10.1324 71.9227 10.1324H75.7725V20.4366C75.7725 20.5654 75.9008 20.6942 76.0291 20.6942H77.1841C77.3124 20.6942 77.4407 20.5654 77.4407 20.4366V10.1324H81.2905C81.5044 10.1324 81.5899 10.0036 81.5899 9.87484ZM80.7348 18.7619C80.9487 18.5472 81.2053 18.4184 81.5475 18.4184C81.8469 18.4184 82.1464 18.5472 82.3603 18.7189C82.5741 18.9336 82.7025 19.2341 82.7025 19.5776C82.7025 19.9211 82.5741 20.2216 82.3603 20.4363C82.1036 20.651 81.8469 20.7798 81.5475 20.7798C81.2481 20.7798 80.9487 20.651 80.7348 20.4363C80.5209 20.2216 80.3926 19.9211 80.3926 19.5776C80.3926 19.2771 80.5209 18.9765 80.7348 18.7619ZM93.8674 15.1986C94.338 14.5546 94.5518 13.7389 94.5518 12.8373C94.5518 11.5063 94.1241 10.5188 93.2258 9.74604C92.3275 9.01616 91.087 8.62976 89.5471 8.62976H85.0984C84.9701 8.62976 84.8418 8.75856 84.8418 8.88736V20.4366C84.8418 20.5654 84.9701 20.6942 85.0984 20.6942H86.2962C86.4245 20.6942 86.5528 20.5654 86.5528 20.4366V17.0448H89.5043C89.6754 17.0448 89.9321 17.0448 90.2743 17.0019L92.798 20.6083C92.8408 20.6942 92.9264 20.7371 93.0119 20.7371H94.2524C94.4663 20.7371 94.5946 20.4795 94.4663 20.3078L91.8998 16.6584C92.7553 16.3578 93.4397 15.8856 93.8674 15.1986ZM91.9853 14.8552C91.4292 15.3274 90.5737 15.5421 89.5043 15.5421H86.5956V10.3471C86.5956 10.2183 86.6811 10.1324 86.8095 10.1324H89.5043C90.5737 10.1324 91.4292 10.3471 91.9853 10.8194C92.5414 11.2917 92.8408 11.9357 92.8408 12.8373C92.8408 13.6959 92.5414 14.3829 91.9853 14.8552ZM71.1964 12.8373C71.1964 13.7389 70.9825 14.5546 70.512 15.1986C70.0414 15.8856 69.3998 16.3578 68.5443 16.6584L71.1108 20.3078C71.2392 20.4795 71.1108 20.7371 70.8969 20.7371H69.6564C69.5709 20.7371 69.4854 20.6942 69.4426 20.6083L66.9188 17.0019C66.5766 17.0448 66.32 17.0448 66.1489 17.0448H63.1973V20.4366C63.1973 20.5654 63.069 20.6942 62.9407 20.6942H61.743C61.6146 20.6942 61.4863 20.5654 61.4863 20.4366V8.88736C61.4863 8.75856 61.6146 8.62976 61.743 8.62976H66.1916C67.7316 8.62976 68.972 9.01616 69.8703 9.74604C70.7686 10.5188 71.1964 11.5063 71.1964 12.8373ZM66.1489 15.5421C67.2182 15.5421 68.0738 15.3274 68.6298 14.8552C69.1859 14.3829 69.4854 13.6959 69.4854 12.8373C69.4854 11.9357 69.1859 11.2917 68.6298 10.8194C68.0738 10.3471 67.2182 10.1324 66.1489 10.1324H63.454C63.3257 10.1324 63.2401 10.2183 63.2401 10.3471V15.5421H66.1489ZM106.744 8.62976H105.589C105.461 8.62976 105.333 8.75856 105.333 8.88736V15.4133C105.333 16.7443 105.033 17.6888 104.477 18.3328C103.878 18.9768 103.066 19.2773 101.953 19.2773C99.6863 19.2773 98.5741 17.9893 98.5741 15.4133V8.88736C98.5741 8.75856 98.4458 8.62976 98.3175 8.62976H97.077C96.9486 8.62976 96.8203 8.75856 96.8203 8.88736V15.4992C96.8203 17.2165 97.2481 18.5475 98.1464 19.4491C99.0446 20.3507 100.285 20.823 101.911 20.823C103.493 20.823 104.777 20.3507 105.675 19.4491C106.573 18.5475 107.001 17.2165 107.001 15.4562V8.88736C107.001 8.75856 106.873 8.62976 106.744 8.62976ZM14.7333 9.0591L10.028 14.0394L15.161 20.2648C15.2894 20.4366 15.161 20.6942 14.9472 20.6942H13.6211C13.5356 20.6942 13.45 20.6512 13.4072 20.6083L8.87303 15.3274L6.69148 17.56V20.4366C6.69148 20.5654 6.56315 20.6942 6.43482 20.6942H5.23711C5.10878 20.6942 4.98046 20.5654 4.98046 20.4366V8.88736C4.98046 8.75856 5.10878 8.62976 5.23711 8.62976H6.43482C6.56315 8.62976 6.69148 8.75856 6.69148 8.88736V15.3704L13.1506 8.71563C13.1934 8.67269 13.2361 8.62976 13.3217 8.62976H14.5622C14.7761 8.62976 14.9044 8.88736 14.7333 9.0591ZM19.5229 10.6046C20.25 10.2182 21.0628 10.0035 22.0038 10.0035C23.2871 10.0035 24.3993 10.4329 25.3403 11.2486C25.4259 11.3345 25.597 11.3345 25.6825 11.2486L26.4097 10.5187C26.4953 10.4329 26.4953 10.2611 26.4097 10.1753C25.8964 9.66007 25.2976 9.23073 24.5704 8.97313C23.8004 8.67259 22.9021 8.50085 21.9611 8.50085C20.7206 8.50085 19.6512 8.75846 18.6673 9.3166C17.6835 9.8318 16.9135 10.5617 16.3575 11.5062C15.8014 12.4508 15.502 13.5241 15.502 14.6833C15.502 15.8425 15.8014 16.9159 16.3575 17.8604C16.9135 18.805 17.6835 19.5348 18.6673 20.05C19.6512 20.5653 20.7206 20.8658 21.9611 20.8658C22.8166 20.8658 23.6293 20.737 24.442 20.4794C25.1692 20.2218 25.8536 19.8783 26.4097 19.449C26.4953 19.406 26.538 19.2772 26.538 19.1914V14.8551C26.538 14.7263 26.4525 14.6404 26.3242 14.6404H22.5599C22.4316 14.6404 22.346 14.7263 22.346 14.8551V15.7137C22.346 15.8425 22.4316 15.9284 22.5599 15.9284H24.9126V18.3756C24.9126 18.5044 24.8698 18.5903 24.7415 18.6332C23.9715 19.1055 23.0732 19.3202 22.0894 19.3202C21.1911 19.3202 20.3784 19.1055 19.6512 18.7191C18.924 18.3327 18.3679 17.7746 17.9402 17.0447C17.5124 16.3577 17.3413 15.542 17.3413 14.6833C17.3413 13.7817 17.5552 13.0089 17.9402 12.279C18.2396 11.5492 18.7957 10.991 19.5229 10.6046ZM54.4706 8.58673C54.5989 8.58673 54.6844 8.6726 54.7272 8.75847L59.9886 20.3077C60.0314 20.4794 59.9031 20.6941 59.732 20.6941H58.4915C58.3631 20.6941 58.2776 20.6082 58.2348 20.5223L56.6949 17.0018H50.8774L49.3375 20.5223C49.2947 20.6511 49.1664 20.6941 49.0808 20.6941H47.8831C47.6693 20.6941 47.5409 20.4794 47.6265 20.3077L52.8451 8.75847C52.8879 8.62966 53.0162 8.58673 53.1017 8.58673H54.4706ZM53.8289 10.347L51.5618 15.542H56.096L53.8289 10.347Z" fill="white"/>
</svg>
